<?xml version="1.0" encoding="UTF-8" standalone="no"?>
<!-- Created with Inkscape (http://www.inkscape.org/) -->

<svg
   xmlns:dc="http://purl.org/dc/elements/1.1/"
   xmlns:cc="http://creativecommons.org/ns#"
   xmlns:rdf="http://www.w3.org/1999/02/22-rdf-syntax-ns#"
   xmlns:svg="http://www.w3.org/2000/svg"
   xmlns="http://www.w3.org/2000/svg"
   xmlns:xlink="http://www.w3.org/1999/xlink"
   xmlns:sodipodi="http://sodipodi.sourceforge.net/DTD/sodipodi-0.dtd"
   xmlns:inkscape="http://www.inkscape.org/namespaces/inkscape"
   width="210mm"
   height="297mm"
   viewBox="0 0 744.09448819 1052.3622047"
   id="svg2"
   version="1.1"
   inkscape:version="0.91 r13725"
   sodipodi:docname="logo designs-food-ordering-app.svg">
  <defs
     id="defs4" />
  <sodipodi:namedview
     id="base"
     pagecolor="#ffffff"
     bordercolor="#666666"
     borderopacity="1.0"
     inkscape:pageopacity="0.0"
     inkscape:pageshadow="2"
     inkscape:zoom="1.979899"
     inkscape:cx="409.99546"
     inkscape:cy="895.80704"
     inkscape:document-units="px"
     inkscape:current-layer="layer1"
     showgrid="false"
     inkscape:window-width="1920"
     inkscape:window-height="1018"
     inkscape:window-x="-8"
     inkscape:window-y="-8"
     inkscape:window-maximized="1" />
  <metadata
     id="metadata7">
    <rdf:RDF>
      <cc:Work
         rdf:about="">
        <dc:format>image/svg+xml</dc:format>
        <dc:type
           rdf:resource="http://purl.org/dc/dcmitype/StillImage" />
        <dc:title />
      </cc:Work>
    </rdf:RDF>
  </metadata>
  <g
     inkscape:label="Layer 1"
     inkscape:groupmode="layer"
     id="layer1">
    <path
       style="fill:#f67f21;fill-opacity:1;fill-rule:evenodd;stroke:#f67f21;stroke-width:1;stroke-linecap:round;stroke-linejoin:round;stroke-miterlimit:4;stroke-dasharray:none;stroke-opacity:1"
       d="m 325.65765,105.1668 23.04967,19.66301 c 9.75697,-21.21818 22.1571,-32.844881 38.42123,-30.449791 12.58347,15.922811 26.0119,25.494381 41.43903,24.634341 5.64829,10.34478 8.96011,8.40789 12.7934,9.21206 l -2.25223,-29.064351 c -3.77625,0.59581 -5.01847,2.328771 -15.43502,3.138031 -5.91115,0.79041 -14.1329,-3.010301 -18.64187,-4.973721 4.89164,0.38526 7.41506,0.50139 18.54173,2.19473 2.71536,-1.71336 4.62814,-4.40506 0.45477,-8.0773 l -68.59949,-9.989294 c -2.19367,-0.22926 -10.1701,2.653814 -2.09857,8.314404 l 4.03569,0.54304 c -8.58268,4.29683 -13.05289,8.63231 -16.2852,12.979451 -9.58679,-3.402101 -11.42074,0.2188 -15.42314,1.87539 z"
       id="path4147"
       inkscape:connector-curvature="0"
       sodipodi:nodetypes="ccccccccccccccc" />
    <path
       style="fill:#f67f21;fill-opacity:1;fill-rule:evenodd;stroke:#f67f21;stroke-width:1px;stroke-linecap:round;stroke-linejoin:round;stroke-opacity:1"
       d="m 357.5393,71.877495 64.23769,17.272204 c 1.38349,-15.468974 -0.13407,-30.061214 -20.08905,-39.081474 -0.51165,-6.81521 -5.8242,-4.50037 -7.30905,-1.58401 -21.07413,-0.73684 -29.55037,10.75224 -36.83959,23.39328 z"
       id="path4149"
       inkscape:connector-curvature="0"
       sodipodi:nodetypes="ccccc" />
    <path
       style="fill:none;fill-rule:evenodd;stroke:#2c79ba;stroke-width:1px;stroke-linecap:round;stroke-linejoin:miter;stroke-opacity:1"
       d="m 420.07017,55.797135 27.77797,0.26116"
       id="path4153"
       inkscape:connector-curvature="0" />
    <path
       style="fill:none;fill-rule:evenodd;stroke:#2c79ba;stroke-width:1px;stroke-linecap:round;stroke-linejoin:miter;stroke-opacity:1"
       d="m 426.83141,61.921895 28.28539,0.0134"
       id="path4155"
       inkscape:connector-curvature="0" />
    <path
       style="fill:none;fill-rule:evenodd;stroke:#2c79ba;stroke-width:1px;stroke-linecap:round;stroke-linejoin:miter;stroke-opacity:1"
       d="m 429.85785,89.225669 16.92168,-0.0935"
       id="path4157"
       inkscape:connector-curvature="0" />
    <path
       style="fill:none;fill-rule:evenodd;stroke:#2c79ba;stroke-width:1px;stroke-linecap:round;stroke-linejoin:miter;stroke-opacity:1"
       d="m 439.65179,95.126389 16.92169,-0.0935"
       id="path4159"
       inkscape:connector-curvature="0" />
    <path
       style="fill:none;fill-rule:evenodd;stroke:#2c79ba;stroke-width:1px;stroke-linecap:round;stroke-linejoin:round;stroke-opacity:1"
       d="m 446.92046,101.00337 16.92168,-0.0935"
       id="path4161"
       inkscape:connector-curvature="0" />
    <path
       style="fill:#ffffff;fill-opacity:1;fill-rule:evenodd;stroke:none;stroke-width:0.60000002;stroke-linecap:round;stroke-linejoin:round;stroke-miterlimit:4;stroke-dasharray:none;stroke-opacity:1"
       d="m 360.59945,70.064785 7.72407,2.11097 c 2.98282,-8.55215 8.23251,-17.06985 14.70604,-20.87282 -4.34861,-0.24535 -14.92134,4.90857 -22.43011,18.76185 z"
       id="path4235"
       inkscape:connector-curvature="0"
       sodipodi:nodetypes="cccc" />
    <text
       xml:space="preserve"
       style="font-style:normal;font-weight:normal;font-size:40px;line-height:125%;font-family:sans-serif;letter-spacing:0px;word-spacing:0px;fill:#000000;fill-opacity:1;stroke:none;stroke-width:1px;stroke-linecap:butt;stroke-linejoin:miter;stroke-opacity:1"
       x="333.57144"
       y="562.36218"
       id="text4154"
       sodipodi:linespacing="125%"><tspan
         sodipodi:role="line"
         id="tspan4156"
         x="333.57144"
         y="562.36218" /></text>
    <path
       style="fill:#2c4051;fill-opacity:1;fill-rule:evenodd;stroke:#2c404f;stroke-width:1px;stroke-linecap:round;stroke-linejoin:round;stroke-opacity:1"
       d="m 397.62601,539.00033 c -5.55584,4.90098 -11.11168,4.56431 -16.66752,0.37881 -29.12731,-7.82598 -27.71774,-26.10054 -25.75889,-34.09265 -24.36619,-0.712 -23.59644,-62.60531 8.71257,-36.36549 2.98837,-3.94349 5.97673,-6.291 8.9651,-8.5863 l 0.12627,-9.21764 c -24.2001,-18.12648 1.63816,-37.19276 17.04632,-23.35978 14.49344,-9.70507 38.07586,5.84731 16.66752,22.34963 l -0.25254,11.49048 c 3.09251,2.15764 5.57767,4.61895 7.32361,7.44988 24.23798,-27.62213 40.65532,28.10917 8.71256,35.73414 1.09491,4.24628 6.08112,26.33134 -24.875,34.21892 z"
       id="path4247"
       inkscape:connector-curvature="0"
       sodipodi:nodetypes="cccccccccccc" />
    <path
       style="fill:#dfdbc0;fill-opacity:1;fill-rule:evenodd;stroke:#2d3f51;stroke-width:1.39999998;stroke-linecap:round;stroke-linejoin:round;stroke-miterlimit:4;stroke-dasharray:none;stroke-opacity:1"
       d="m 373.50861,503.39245 c -16.91401,-14.32687 2.77683,-59.73101 15.27856,-31.31473 9.02495,-38.08484 32.94426,19.7713 15.5311,30.80966 30.39501,10.76137 4.27484,34.1361 -14.52095,32.70369 -41.56939,-1.39068 -30.53429,-32.94491 -16.28871,-32.19862 z"
       id="path4169"
       inkscape:connector-curvature="0"
       sodipodi:nodetypes="ccccc" />
    <ellipse
       style="opacity:1;fill:#2d4051;fill-opacity:1;stroke:none;stroke-width:1.39999998;stroke-linecap:round;stroke-linejoin:round;stroke-miterlimit:4;stroke-dasharray:none;stroke-dashoffset:0;stroke-opacity:1"
       id="path4173"
       cx="394.91119"
       cy="492.09137"
       rx="2.2097087"
       ry="4.987628" />
    <ellipse
       style="opacity:1;fill:#2d3f4f;fill-opacity:1;stroke:none;stroke-width:1.39999998;stroke-linecap:round;stroke-linejoin:round;stroke-miterlimit:4;stroke-dasharray:none;stroke-dashoffset:0;stroke-opacity:0.87843137"
       id="path4173-4"
       cx="382.85251"
       cy="492.15448"
       rx="2.2097087"
       ry="4.987628" />
    <ellipse
       style="opacity:1;fill:#2d4050;fill-opacity:1;stroke:none;stroke-width:1.39999998;stroke-linecap:round;stroke-linejoin:round;stroke-miterlimit:4;stroke-dasharray:none;stroke-dashoffset:0;stroke-opacity:0.87843137"
       id="path4173-4-3"
       cx="584.48425"
       cy="-423.33276"
       rx="1.4800159"
       ry="2.7842004"
       transform="matrix(-0.05408819,0.99853616,-0.98278346,0.18476114,0,0)" />
    <ellipse
       style="opacity:1;fill:#2d4051;fill-opacity:1;stroke:none;stroke-width:1.39999998;stroke-linecap:round;stroke-linejoin:round;stroke-miterlimit:4;stroke-dasharray:none;stroke-dashoffset:0;stroke-opacity:0.87843137"
       id="path4173-4-3-4"
       cx="280.3714"
       cy="-646.10052"
       rx="1.4800159"
       ry="2.7842004"
       transform="matrix(-0.65211834,0.75811719,-0.8913726,-0.45327131,0,0)" />
    <path
       style="fill:#2d404f;fill-opacity:1;fill-rule:evenodd;stroke:#2d404f;stroke-width:0.98063809px;stroke-linecap:round;stroke-linejoin:round;stroke-opacity:1"
       d="m 382.08523,528.25777 c 2.30313,3.81575 9.82077,5.07614 13.53015,0.1224 -5.48608,2.17142 -9.70336,1.64897 -13.53015,-0.1224 z"
       id="path4222"
       inkscape:connector-curvature="0"
       sodipodi:nodetypes="ccc" />
    <path
       style="fill:#2d4051;fill-opacity:1;fill-rule:evenodd;stroke:#2e4051;stroke-width:0.60000002;stroke-linecap:round;stroke-linejoin:round;stroke-miterlimit:4;stroke-dasharray:none;stroke-opacity:1"
       d="m 388.91344,483.998 c 5.95901,0.59861 4.44845,-9.80355 6.82619,-11.22897 3.26258,-2.85796 6.29764,1.84706 6.87718,2.45141 -2.2643,-0.45215 -4.1872,-1.51443 -4.79057,-0.32782 -1.54779,5.34773 -4.34637,14.28822 -8.9128,9.10538 z"
       id="path4224"
       inkscape:connector-curvature="0"
       sodipodi:nodetypes="ccccc" />
    <path
       style="fill:#2d4051;fill-opacity:1;fill-rule:evenodd;stroke:none;stroke-width:0.40000001;stroke-linecap:round;stroke-linejoin:round;stroke-miterlimit:4;stroke-dasharray:none;stroke-opacity:1"
       d="m 388.89089,512.10406 c -6.44222,-5.5243 -9.74314,5.61841 -11.69643,6.33928 -2.84283,0.86219 -3.86086,0.21317 -4.50893,-2.32142 -1.369,-0.1012 -0.91512,0.4802 -1.33928,1.29464 0.36341,9.46451 16.08145,4.67974 17.63393,-1.38393 z"
       id="path4230"
       inkscape:connector-curvature="0"
       sodipodi:nodetypes="cccccc" />
    <path
       style="fill:#2d404f;fill-opacity:1;fill-rule:evenodd;stroke:none;stroke-width:0.39005804;stroke-linecap:round;stroke-linejoin:round;stroke-miterlimit:4;stroke-dasharray:none;stroke-opacity:1"
       d="m 389.30379,512.13226 c 6.12097,-5.5288 9.25729,5.62299 11.11317,6.34445 2.70107,0.86289 3.66834,0.21334 4.28409,-2.32332 1.30073,-0.10128 0.86949,0.48059 1.27249,1.2957 -0.34528,9.47222 -15.27952,4.68355 -16.75458,-1.38506 z"
       id="path4230-6"
       inkscape:connector-curvature="0"
       sodipodi:nodetypes="cccccc" />
    <path
       style="fill:#dfdbc0;fill-opacity:1;fill-rule:evenodd;stroke:#2c4051;stroke-width:1px;stroke-linecap:round;stroke-linejoin:round;stroke-opacity:1"
       d="m 380.83222,450.23318 c -31.92138,-17.20519 1.12573,-29.22495 5.68211,-18.94036 l -4.29315,5.55583 c 32.16843,-24.2695 42.44159,15.02034 2.77792,12.2481 3.50493,1.48495 2.83191,3.92485 17.29886,2.90419 l -0.12627,6.56599 c -2.52854,-5.98712 -8.97231,-3.70244 -14.01586,0.63135 -4.51855,-2.65527 -8.74731,-5.73572 -10.35407,-2.14657 l -0.3788,-6.31346 z"
       id="path4249"
       inkscape:connector-curvature="0"
       sodipodi:nodetypes="cccccccccc" />
    <path
       style="fill:#dfdbc0;fill-opacity:1;fill-rule:evenodd;stroke:#2d4051;stroke-width:1px;stroke-linecap:round;stroke-linejoin:round;stroke-opacity:1"
       d="m 352.67422,485.33598 c 11.00403,0.5845 5.11195,15.23559 0.12627,14.77348 -13.73272,-3.43849 -16.26025,-28.98916 -4.41942,-30.80966 3.26464,0.17769 10.64853,-0.47027 10.85914,17.1726 -2.27798,-2.54875 -4.27976,-4.26524 -6.56599,-1.13642 z"
       id="path4251"
       inkscape:connector-curvature="0"
       sodipodi:nodetypes="ccccc" />
    <path
       style="fill:#dfdbc0;fill-opacity:1;fill-rule:evenodd;stroke:#2d4050;stroke-width:0.98829812px;stroke-linecap:round;stroke-linejoin:round;stroke-opacity:1"
       d="m 425.60336,484.95182 c -10.74392,0.58472 -4.99112,15.24137 -0.12329,14.77909 13.40812,-3.4398 15.8759,-29.00017 4.31496,-30.82136 -3.18747,0.17775 -10.39682,-0.47046 -10.60245,17.17912 2.22413,-2.54972 4.17859,-4.26686 6.41078,-1.13685 z"
       id="path4251-4"
       inkscape:connector-curvature="0"
       sodipodi:nodetypes="ccccc" />
    <text
       xml:space="preserve"
       style="font-style:normal;font-weight:normal;font-size:40px;line-height:125%;font-family:sans-serif;letter-spacing:0px;word-spacing:0px;fill:#2c4051;fill-opacity:1;stroke:none;stroke-width:1px;stroke-linecap:butt;stroke-linejoin:miter;stroke-opacity:1"
       x="276.30176"
       y="572.60815"
       id="text4268"
       sodipodi:linespacing="125%"><tspan
         sodipodi:role="line"
         id="tspan4270"
         x="276.30176"
         y="572.60815"
         style="font-style:italic;font-variant:normal;font-weight:normal;font-stretch:normal;font-size:35px;font-family:GalanoGrotesqueAlt-BoldItalic;-inkscape-font-specification:'GalanoGrotesqueAlt-BoldItalic Italic'">Entrangando!</tspan></text>
    <text
       xml:space="preserve"
       style="font-style:normal;font-weight:normal;font-size:40px;line-height:125%;font-family:sans-serif;letter-spacing:0px;word-spacing:0px;fill:#f67f21;fill-opacity:1;stroke:none;stroke-width:1px;stroke-linecap:butt;stroke-linejoin:miter;stroke-opacity:1"
       id="text4268-5"
       sodipodi:linespacing="125%"
       transform="matrix(0.9540999,0.03246171,-0.03246171,0.9540999,75.409206,-335.32178)"><textPath
         xlink:href="#path4363"
         id="textPath4365"><tspan
   style="font-style:italic;font-variant:normal;font-weight:normal;font-stretch:normal;font-size:35px;font-family:GalanoGrotesqueAlt-BoldItalic;-inkscape-font-specification:'GalanoGrotesqueAlt-BoldItalic Italic';fill:#f67f21;fill-opacity:1;stroke:none;stroke-opacity:1"
   id="tspan4270-2">                                                   Entragando</tspan></textPath></text>
    <path
       style="fill:#2c79ba;fill-opacity:1;fill-rule:evenodd;stroke:none;stroke-width:1px;stroke-linecap:round;stroke-linejoin:round;stroke-opacity:1"
       d="m 459.15732,140.38983 c -46.15035,-8.81597 -91.98814,-9.69104 -137.59514,-4.70307 44.13615,-7.96059 89.32104,-10.14134 137.59514,4.70307 z"
       id="path4301"
       inkscape:connector-curvature="0"
       sodipodi:nodetypes="ccc" />
    <path
       style="fill:none;fill-rule:evenodd;stroke:#2c79ba;stroke-width:1px;stroke-linecap:round;stroke-linejoin:miter;stroke-opacity:1"
       d="m 413.93904,49.804595 27.77797,0.26116"
       id="path4153-4"
       inkscape:connector-curvature="0" />
    <text
       xml:space="preserve"
       style="font-style:normal;font-weight:normal;font-size:40px;line-height:125%;font-family:sans-serif;letter-spacing:0px;word-spacing:0px;fill:#000000;fill-opacity:1;stroke:none;stroke-width:1px;stroke-linecap:butt;stroke-linejoin:miter;stroke-opacity:1"
       x="477.85715"
       y="504.14792"
       id="text4335"
       sodipodi:linespacing="125%"><tspan
         sodipodi:role="line"
         id="tspan4337"
         x="477.85715"
         y="504.14792" /></text>
    <ellipse
       style="opacity:1;fill:none;fill-opacity:1;stroke:none;stroke-width:0.92115408;stroke-linecap:round;stroke-linejoin:round;stroke-miterlimit:4;stroke-dasharray:none;stroke-dashoffset:0;stroke-opacity:1"
       id="path4363"
       cx="336.63333"
       cy="556.66602"
       rx="155.35039"
       ry="49.915703" />
    <text
       xml:space="preserve"
       style="font-style:normal;font-weight:normal;font-size:40px;line-height:125%;font-family:sans-serif;letter-spacing:0px;word-spacing:0px;fill:#000000;fill-opacity:1;stroke:none;stroke-width:1px;stroke-linecap:butt;stroke-linejoin:miter;stroke-opacity:1"
       x="571.74634"
       y="1042.7659"
       id="text4368"
       sodipodi:linespacing="125%"><tspan
         sodipodi:role="line"
         id="tspan4370"
         x="571.74634"
         y="1042.7659"
         style="font-size:12.5px">Copyright 2016 Alec Hahn</tspan></text>
    <path
       style="fill:#2c4051;fill-opacity:1;fill-rule:evenodd;stroke:#2c404f;stroke-width:1px;stroke-linecap:round;stroke-linejoin:round;stroke-opacity:1"
       d="m 395.10073,747.42406 c -5.55584,4.90098 -11.11168,4.56431 -16.66752,0.37881 -29.12731,-7.82598 -27.71774,-26.10054 -25.75889,-34.09265 -24.36619,-0.712 -23.59644,-62.60531 8.71257,-36.36549 2.98837,-3.94349 5.97673,-6.291 8.9651,-8.5863 l 0.12627,-9.21764 c -24.2001,-18.12648 1.63816,-37.19276 17.04632,-23.35978 14.49344,-9.70507 38.07586,5.84731 16.66752,22.34963 l -0.25254,11.49048 c 3.09251,2.15764 5.57767,4.61895 7.32361,7.44988 24.23798,-27.62213 40.65532,28.10917 8.71256,35.73414 1.09491,4.24628 6.08112,26.33134 -24.875,34.21892 z"
       id="path4247-7"
       inkscape:connector-curvature="0"
       sodipodi:nodetypes="cccccccccccc" />
    <path
       style="fill:#f67f21;fill-opacity:1;fill-rule:evenodd;stroke:#2d3f51;stroke-width:1.39999998;stroke-linecap:round;stroke-linejoin:round;stroke-miterlimit:4;stroke-dasharray:none;stroke-opacity:1"
       d="m 370.98333,711.81618 c -16.91401,-14.32687 2.77683,-59.73101 15.27856,-31.31473 9.02495,-38.08484 32.94426,19.7713 15.5311,30.80966 30.39501,10.76137 4.27484,34.1361 -14.52095,32.70369 -41.56939,-1.39068 -30.53429,-32.94491 -16.28871,-32.19862 z"
       id="path4169-8"
       inkscape:connector-curvature="0"
       sodipodi:nodetypes="ccccc" />
    <ellipse
       style="opacity:1;fill:#2d4051;fill-opacity:1;stroke:none;stroke-width:1.39999998;stroke-linecap:round;stroke-linejoin:round;stroke-miterlimit:4;stroke-dasharray:none;stroke-dashoffset:0;stroke-opacity:1"
       id="path4173-7"
       cx="392.38593"
       cy="700.51514"
       rx="2.2097087"
       ry="4.987628" />
    <ellipse
       style="opacity:1;fill:#2d3f4f;fill-opacity:1;stroke:none;stroke-width:1.39999998;stroke-linecap:round;stroke-linejoin:round;stroke-miterlimit:4;stroke-dasharray:none;stroke-dashoffset:0;stroke-opacity:0.87843137"
       id="path4173-4-30"
       cx="380.32724"
       cy="700.57825"
       rx="2.2097087"
       ry="4.987628" />
    <ellipse
       style="opacity:1;fill:#2d4050;fill-opacity:1;stroke:none;stroke-width:1.39999998;stroke-linecap:round;stroke-linejoin:round;stroke-miterlimit:4;stroke-dasharray:none;stroke-dashoffset:0;stroke-opacity:0.87843137"
       id="path4173-4-3-7"
       cx="794.88068"
       cy="-432.34256"
       rx="1.4800159"
       ry="2.7842004"
       transform="matrix(-0.05408819,0.99853616,-0.98278346,0.18476114,0,0)" />
    <ellipse
       style="opacity:1;fill:#2d4051;fill-opacity:1;stroke:none;stroke-width:1.39999998;stroke-linecap:round;stroke-linejoin:round;stroke-miterlimit:4;stroke-dasharray:none;stroke-dashoffset:0;stroke-opacity:0.87843137"
       id="path4173-4-3-4-9"
       cx="472.81201"
       cy="-784.05518"
       rx="1.4800159"
       ry="2.7842004"
       transform="matrix(-0.65211834,0.75811719,-0.8913726,-0.45327131,0,0)" />
    <path
       style="fill:#2d404f;fill-opacity:1;fill-rule:evenodd;stroke:#2d404f;stroke-width:0.98063809px;stroke-linecap:round;stroke-linejoin:round;stroke-opacity:1"
       d="m 379.55995,736.6815 c 2.30313,3.81575 9.82077,5.07614 13.53015,0.1224 -5.48608,2.17142 -9.70336,1.64897 -13.53015,-0.1224 z"
       id="path4222-5"
       inkscape:connector-curvature="0"
       sodipodi:nodetypes="ccc" />
    <path
       style="fill:#2d4051;fill-opacity:1;fill-rule:evenodd;stroke:#2e4051;stroke-width:0.60000002;stroke-linecap:round;stroke-linejoin:round;stroke-miterlimit:4;stroke-dasharray:none;stroke-opacity:1"
       d="m 386.38816,692.42173 c 5.95901,0.59861 4.44845,-9.80355 6.82619,-11.22897 3.26258,-2.85796 6.29764,1.84706 6.87718,2.45141 -2.2643,-0.45215 -4.1872,-1.51443 -4.79057,-0.32782 -1.54779,5.34773 -4.34637,14.28822 -8.9128,9.10538 z"
       id="path4224-5"
       inkscape:connector-curvature="0"
       sodipodi:nodetypes="ccccc" />
    <path
       style="fill:#2d4051;fill-opacity:1;fill-rule:evenodd;stroke:none;stroke-width:0.40000001;stroke-linecap:round;stroke-linejoin:round;stroke-miterlimit:4;stroke-dasharray:none;stroke-opacity:1"
       d="m 386.36561,720.52779 c -6.44222,-5.5243 -9.74314,5.61841 -11.69643,6.33928 -2.84283,0.86219 -3.86086,0.21317 -4.50893,-2.32142 -1.369,-0.1012 -0.91512,0.4802 -1.33928,1.29464 0.36341,9.46451 16.08145,4.67974 17.63393,-1.38393 z"
       id="path4230-1"
       inkscape:connector-curvature="0"
       sodipodi:nodetypes="cccccc" />
    <path
       style="fill:#2d404f;fill-opacity:1;fill-rule:evenodd;stroke:none;stroke-width:0.39005804;stroke-linecap:round;stroke-linejoin:round;stroke-miterlimit:4;stroke-dasharray:none;stroke-opacity:1"
       d="m 386.77851,720.55599 c 6.12097,-5.5288 9.25729,5.62299 11.11317,6.34445 2.70107,0.86289 3.66834,0.21334 4.28409,-2.32332 1.30073,-0.10128 0.86949,0.48059 1.27249,1.2957 -0.34528,9.47222 -15.27952,4.68355 -16.75458,-1.38506 z"
       id="path4230-6-9"
       inkscape:connector-curvature="0"
       sodipodi:nodetypes="cccccc" />
    <path
       style="fill:#dfdbc0;fill-opacity:1;fill-rule:evenodd;stroke:#2c4051;stroke-width:1px;stroke-linecap:round;stroke-linejoin:round;stroke-opacity:1"
       d="m 378.30694,658.65691 c -31.92138,-17.20519 1.12573,-29.22495 5.68211,-18.94036 l -4.29315,5.55583 c 32.16843,-24.2695 42.44159,15.02034 2.77792,12.2481 3.50493,1.48495 2.83191,3.92485 17.29886,2.90419 l -0.12627,6.56599 c -2.52854,-5.98712 -8.97231,-3.70244 -14.01586,0.63135 -4.51855,-2.65527 -8.74731,-5.73572 -10.35407,-2.14657 l -0.3788,-6.31346 z"
       id="path4249-1"
       inkscape:connector-curvature="0"
       sodipodi:nodetypes="cccccccccc" />
    <path
       style="fill:#f67f21;fill-opacity:1;fill-rule:evenodd;stroke:#2d4051;stroke-width:1px;stroke-linecap:round;stroke-linejoin:round;stroke-opacity:1"
       d="m 350.14894,693.75971 c 11.00403,0.5845 5.11195,15.23559 0.12627,14.77348 -13.73272,-3.43849 -16.26025,-28.98916 -4.41942,-30.80966 3.26464,0.17769 10.64853,-0.47027 10.85914,17.1726 -2.27798,-2.54875 -4.27976,-4.26524 -6.56599,-1.13642 z"
       id="path4251-5"
       inkscape:connector-curvature="0"
       sodipodi:nodetypes="ccccc" />
    <path
       style="fill:#f67f21;fill-opacity:1;fill-rule:evenodd;stroke:#2d4050;stroke-width:0.98829812px;stroke-linecap:round;stroke-linejoin:round;stroke-opacity:1"
       d="m 423.07808,693.37555 c -10.74392,0.58472 -4.99112,15.24137 -0.12329,14.77909 13.40812,-3.4398 15.8759,-29.00017 4.31496,-30.82136 -3.18747,0.17775 -10.39682,-0.47046 -10.60245,17.17912 2.22413,-2.54972 4.17859,-4.26686 6.41078,-1.13685 z"
       id="path4251-4-5"
       inkscape:connector-curvature="0"
       sodipodi:nodetypes="ccccc" />
    <text
       xml:space="preserve"
       style="font-style:normal;font-weight:normal;font-size:40px;line-height:125%;font-family:sans-serif;letter-spacing:0px;word-spacing:0px;fill:#f67f21;fill-opacity:1;stroke:none;stroke-width:1px;stroke-linecap:butt;stroke-linejoin:miter;stroke-opacity:1"
       x="273.77646"
       y="781.03192"
       id="text4268-3"
       sodipodi:linespacing="125%"><tspan
         sodipodi:role="line"
         id="tspan4270-9"
         x="273.77646"
         y="781.03192"
         style="font-style:italic;font-variant:normal;font-weight:normal;font-stretch:normal;font-size:35px;font-family:GalanoGrotesqueAlt-BoldItalic;-inkscape-font-specification:'GalanoGrotesqueAlt-BoldItalic Italic';fill:#f67f21;fill-opacity:1">Entrangando!</tspan></text>
    <path
       style="fill:#f67f21;fill-opacity:1;fill-rule:evenodd;stroke:#f67f21;stroke-width:1px;stroke-linecap:round;stroke-linejoin:round;stroke-opacity:1"
       d="m 396.23272,964.60684 c -5.55584,4.90098 -11.11168,4.56431 -16.66752,0.37881 -29.1273,-7.82598 -27.71773,-26.10054 -25.75888,-34.09265 -24.36619,-0.712 -23.59644,-62.60531 8.71257,-36.36549 2.98837,-3.94349 5.97673,-6.291 8.9651,-8.5863 l 0.12627,-9.21764 c -24.2001,-18.12648 1.63816,-37.19276 17.04631,-23.35978 14.49344,-9.70507 38.07586,5.84731 16.66752,22.34963 l -0.25254,11.49048 c 3.09251,2.15764 5.57767,4.61895 7.32361,7.44988 24.23798,-27.62213 40.65532,28.10917 8.71256,35.73414 1.09491,4.24628 6.08112,26.33134 -24.875,34.21892 z"
       id="path4247-7-1"
       inkscape:connector-curvature="0"
       sodipodi:nodetypes="cccccccccccc" />
    <path
       style="fill:#dfdbc0;fill-opacity:1;fill-rule:evenodd;stroke:#f67f21;stroke-width:1.39999998;stroke-linecap:round;stroke-linejoin:round;stroke-miterlimit:4;stroke-dasharray:none;stroke-opacity:1"
       d="m 372.11533,928.99896 c -16.91401,-14.32687 2.77683,-59.73101 15.27855,-31.31473 9.02495,-38.08484 32.94426,19.7713 15.5311,30.80966 30.39501,10.76137 4.27484,34.1361 -14.52095,32.70369 -41.56938,-1.39068 -30.53428,-32.94491 -16.2887,-32.19862 z"
       id="path4169-8-2"
       inkscape:connector-curvature="0"
       sodipodi:nodetypes="ccccc" />
    <ellipse
       style="opacity:1;fill:#f67f21;fill-opacity:1;stroke:none;stroke-width:1.39999998;stroke-linecap:round;stroke-linejoin:round;stroke-miterlimit:4;stroke-dasharray:none;stroke-dashoffset:0;stroke-opacity:1"
       id="path4173-7-0"
       cx="393.51794"
       cy="917.69788"
       rx="2.2097087"
       ry="4.987628" />
    <ellipse
       style="opacity:1;fill:#f67f21;fill-opacity:1;stroke:none;stroke-width:1.39999998;stroke-linecap:round;stroke-linejoin:round;stroke-miterlimit:4;stroke-dasharray:none;stroke-dashoffset:0;stroke-opacity:0.87843137"
       id="path4173-4-30-3"
       cx="381.45923"
       cy="917.76099"
       rx="2.2097087"
       ry="4.987628" />
    <ellipse
       style="opacity:1;fill:#f67f21;fill-opacity:1;stroke:none;stroke-width:1.39999998;stroke-linecap:round;stroke-linejoin:round;stroke-miterlimit:4;stroke-dasharray:none;stroke-dashoffset:0;stroke-opacity:0.87843137"
       id="path4173-4-3-7-5"
       cx="1014.8348"
       cy="-445.59988"
       rx="1.4800159"
       ry="2.7842004"
       transform="matrix(-0.05408819,0.99853616,-0.98278346,0.18476114,0,0)" />
    <ellipse
       style="opacity:1;fill:#f67f21;fill-opacity:1;stroke:none;stroke-width:1.39999998;stroke-linecap:round;stroke-linejoin:round;stroke-miterlimit:4;stroke-dasharray:none;stroke-dashoffset:0;stroke-opacity:0.87843137"
       id="path4173-4-3-4-9-8"
       cx="671.58435"
       cy="-930.74457"
       rx="1.4800159"
       ry="2.7842004"
       transform="matrix(-0.65211834,0.75811719,-0.8913726,-0.45327131,0,0)" />
    <path
       style="fill:#f67f21;fill-opacity:1;fill-rule:evenodd;stroke:#f67f21;stroke-width:0.98063809px;stroke-linecap:round;stroke-linejoin:round;stroke-opacity:1"
       d="m 380.69194,953.86428 c 2.30313,3.81575 9.82077,5.07614 13.53015,0.1224 -5.48608,2.17142 -9.70336,1.64897 -13.53015,-0.1224 z"
       id="path4222-5-4"
       inkscape:connector-curvature="0"
       sodipodi:nodetypes="ccc" />
    <path
       style="fill:#f67f21;fill-opacity:1;fill-rule:evenodd;stroke:#f67f21;stroke-width:0.60000002;stroke-linecap:round;stroke-linejoin:round;stroke-miterlimit:4;stroke-dasharray:none;stroke-opacity:1"
       d="m 387.52015,909.60451 c 5.95901,0.59861 4.44845,-9.80355 6.82619,-11.22897 3.26258,-2.85796 6.29764,1.84706 6.87718,2.45141 -2.2643,-0.45215 -4.1872,-1.51443 -4.79057,-0.32782 -1.54779,5.34773 -4.34637,14.28822 -8.9128,9.10538 z"
       id="path4224-5-0"
       inkscape:connector-curvature="0"
       sodipodi:nodetypes="ccccc" />
    <path
       style="fill:#f67f21;fill-opacity:1;fill-rule:evenodd;stroke:none;stroke-width:0.40000001;stroke-linecap:round;stroke-linejoin:round;stroke-miterlimit:4;stroke-dasharray:none;stroke-opacity:1"
       d="m 387.4976,937.71057 c -6.44222,-5.5243 -9.74314,5.61841 -11.69643,6.33928 -2.84282,0.86219 -3.86085,0.21317 -4.50892,-2.32142 -1.369,-0.1012 -0.91512,0.4802 -1.33928,1.29464 0.36341,9.46451 16.08144,4.67974 17.63392,-1.38393 z"
       id="path4230-1-0"
       inkscape:connector-curvature="0"
       sodipodi:nodetypes="cccccc" />
    <path
       style="fill:#f67f21;fill-opacity:1;fill-rule:evenodd;stroke:none;stroke-width:0.39005804;stroke-linecap:round;stroke-linejoin:round;stroke-miterlimit:4;stroke-dasharray:none;stroke-opacity:1"
       d="m 387.9105,937.73877 c 6.12097,-5.5288 9.25729,5.62299 11.11317,6.34445 2.70107,0.86289 3.66834,0.21334 4.28409,-2.32332 1.30073,-0.10128 0.86949,0.48059 1.27249,1.2957 -0.34528,9.47222 -15.27952,4.68355 -16.75458,-1.38506 z"
       id="path4230-6-9-1"
       inkscape:connector-curvature="0"
       sodipodi:nodetypes="cccccc" />
    <path
       style="fill:#dfdbc0;fill-opacity:1;fill-rule:evenodd;stroke:#f67f21;stroke-width:1px;stroke-linecap:round;stroke-linejoin:round;stroke-opacity:1"
       d="m 379.43893,875.83969 c -31.92137,-17.20519 1.12573,-29.22495 5.68211,-18.94036 l -4.29315,5.55583 c 32.16843,-24.2695 42.44159,15.02034 2.77792,12.2481 3.50493,1.48495 2.83191,3.92485 17.29886,2.90419 l -0.12627,6.56599 c -2.52854,-5.98712 -8.97231,-3.70244 -14.01586,0.63135 -4.51855,-2.65527 -8.74731,-5.73572 -10.35407,-2.14657 l -0.3788,-6.31346 z"
       id="path4249-1-2"
       inkscape:connector-curvature="0"
       sodipodi:nodetypes="cccccccccc" />
    <path
       style="fill:#dfdbc0;fill-opacity:1;fill-rule:evenodd;stroke:#f67f21;stroke-width:1px;stroke-linecap:round;stroke-linejoin:round;stroke-opacity:1"
       d="m 351.28094,910.94249 c 11.00403,0.5845 5.11195,15.23559 0.12627,14.77348 -13.73272,-3.43849 -16.26025,-28.98916 -4.41942,-30.80966 3.26464,0.17769 10.64853,-0.47027 10.85914,17.1726 -2.27798,-2.54875 -4.27976,-4.26524 -6.56599,-1.13642 z"
       id="path4251-5-0"
       inkscape:connector-curvature="0"
       sodipodi:nodetypes="ccccc" />
    <path
       style="fill:#dfdbc0;fill-opacity:1;fill-rule:evenodd;stroke:#f67f21;stroke-width:0.98829812px;stroke-linecap:round;stroke-linejoin:round;stroke-opacity:1"
       d="m 424.21007,910.55833 c -10.74392,0.58472 -4.99112,15.24137 -0.12329,14.77909 13.40812,-3.4398 15.8759,-29.00017 4.31496,-30.82136 -3.18747,0.17775 -10.39682,-0.47046 -10.60245,17.17912 2.22413,-2.54972 4.17859,-4.26686 6.41078,-1.13685 z"
       id="path4251-4-5-7"
       inkscape:connector-curvature="0"
       sodipodi:nodetypes="ccccc" />
    <text
       xml:space="preserve"
       style="font-style:normal;font-weight:normal;font-size:40px;line-height:125%;font-family:sans-serif;letter-spacing:0px;word-spacing:0px;fill:#f67f21;fill-opacity:1;stroke:none;stroke-width:1px;stroke-linecap:butt;stroke-linejoin:miter;stroke-opacity:1"
       x="274.90845"
       y="998.21466"
       id="text4268-3-8"
       sodipodi:linespacing="125%"><tspan
         sodipodi:role="line"
         id="tspan4270-9-7"
         x="274.90845"
         y="998.21466"
         style="font-style:italic;font-variant:normal;font-weight:normal;font-stretch:normal;font-size:35px;font-family:GalanoGrotesqueAlt-BoldItalic;-inkscape-font-specification:'GalanoGrotesqueAlt-BoldItalic Italic';fill:#f67f21;fill-opacity:1">Entrangando!</tspan></text>
    <path
       style="fill:#f67f21;fill-opacity:1;fill-rule:evenodd;stroke:#f67f21;stroke-width:1;stroke-linecap:round;stroke-linejoin:round;stroke-miterlimit:4;stroke-dasharray:none;stroke-opacity:1"
       d="m 533.74269,253.36796 23.04967,19.66301 c 9.75697,-21.21818 22.1571,-32.84488 38.42123,-30.44979 12.58347,15.92281 26.0119,25.49438 41.43903,24.63434 5.64829,10.34478 8.96011,8.40789 12.7934,9.21206 l -2.25223,-29.06435 c -3.77625,0.59581 -5.01847,2.32877 -15.43502,3.13803 -5.91115,0.79041 -14.1329,-3.0103 -18.64187,-4.97372 4.89164,0.38526 7.41506,0.50139 18.54173,2.19473 2.71536,-1.71336 4.62814,-4.40506 0.45477,-8.0773 l -68.59949,-9.9893 c -2.19367,-0.22926 -10.1701,2.65382 -2.09857,8.31441 l 4.03569,0.54304 c -8.58268,4.29683 -13.05289,8.63231 -16.2852,12.97945 -9.58679,-3.4021 -11.42074,0.2188 -15.42314,1.87539 z"
       id="path4147-5"
       inkscape:connector-curvature="0"
       sodipodi:nodetypes="ccccccccccccccc"
       inkscape:export-filename="C:\Users\alec\Documents\GitHub\main\assets\images\default-image-merchant.png"
       inkscape:export-xdpi="107.20817"
       inkscape:export-ydpi="107.20817" />
    <path
       style="fill:#f67f21;fill-opacity:1;fill-rule:evenodd;stroke:#f67f21;stroke-width:1px;stroke-linecap:round;stroke-linejoin:round;stroke-opacity:1"
       d="m 565.62434,218.07865 64.23769,17.27221 c 1.38349,-15.46898 -0.13407,-30.06122 -20.08905,-39.08148 -0.51165,-6.81521 -5.8242,-4.50037 -7.30905,-1.58401 -21.07413,-0.73684 -29.55037,10.75224 -36.83959,23.39328 z"
       id="path4149-5"
       inkscape:connector-curvature="0"
       sodipodi:nodetypes="ccccc"
       inkscape:export-filename="C:\Users\alec\Documents\GitHub\main\assets\images\default-image-merchant.png"
       inkscape:export-xdpi="107.20817"
       inkscape:export-ydpi="107.20817" />
    <path
       style="fill:none;fill-rule:evenodd;stroke:#2c79ba;stroke-width:1px;stroke-linecap:round;stroke-linejoin:miter;stroke-opacity:1"
       d="m 628.15521,201.99829 27.77797,0.26116"
       id="path4153-7"
       inkscape:connector-curvature="0"
       inkscape:export-filename="C:\Users\alec\Documents\GitHub\main\assets\images\default-image-merchant.png"
       inkscape:export-xdpi="107.20817"
       inkscape:export-ydpi="107.20817" />
    <path
       style="fill:none;fill-rule:evenodd;stroke:#2c79ba;stroke-width:1px;stroke-linecap:round;stroke-linejoin:miter;stroke-opacity:1"
       d="m 634.91645,208.12305 28.28539,0.0134"
       id="path4155-2"
       inkscape:connector-curvature="0"
       inkscape:export-filename="C:\Users\alec\Documents\GitHub\main\assets\images\default-image-merchant.png"
       inkscape:export-xdpi="107.20817"
       inkscape:export-ydpi="107.20817" />
    <path
       style="fill:none;fill-rule:evenodd;stroke:#2c79ba;stroke-width:1px;stroke-linecap:round;stroke-linejoin:miter;stroke-opacity:1"
       d="m 639.94289,237.42683 16.92168,-0.0935"
       id="path4157-9"
       inkscape:connector-curvature="0"
       inkscape:export-filename="C:\Users\alec\Documents\GitHub\main\assets\images\default-image-merchant.png"
       inkscape:export-xdpi="107.20817"
       inkscape:export-ydpi="107.20817" />
    <path
       style="fill:none;fill-rule:evenodd;stroke:#2c79ba;stroke-width:1px;stroke-linecap:round;stroke-linejoin:miter;stroke-opacity:1"
       d="m 647.73683,243.32755 16.92169,-0.0935"
       id="path4159-3"
       inkscape:connector-curvature="0"
       inkscape:export-filename="C:\Users\alec\Documents\GitHub\main\assets\images\default-image-merchant.png"
       inkscape:export-xdpi="107.20817"
       inkscape:export-ydpi="107.20817" />
    <path
       style="fill:none;fill-rule:evenodd;stroke:#2c79ba;stroke-width:1px;stroke-linecap:round;stroke-linejoin:round;stroke-opacity:1"
       d="m 655.0055,249.20453 16.92168,-0.0935"
       id="path4161-2"
       inkscape:connector-curvature="0"
       inkscape:export-filename="C:\Users\alec\Documents\GitHub\main\assets\images\default-image-merchant.png"
       inkscape:export-xdpi="107.20817"
       inkscape:export-ydpi="107.20817" />
    <path
       style="fill:#ffffff;fill-opacity:1;fill-rule:evenodd;stroke:none;stroke-width:0.60000002;stroke-linecap:round;stroke-linejoin:round;stroke-miterlimit:4;stroke-dasharray:none;stroke-opacity:1"
       d="m 568.68449,216.26594 7.72407,2.11097 c 2.98282,-8.55215 8.23251,-17.06985 14.70604,-20.87282 -4.34861,-0.24535 -14.92134,4.90857 -22.43011,18.76185 z"
       id="path4235-2"
       inkscape:connector-curvature="0"
       sodipodi:nodetypes="cccc"
       inkscape:export-filename="C:\Users\alec\Documents\GitHub\main\assets\images\default-image-merchant.png"
       inkscape:export-xdpi="107.20817"
       inkscape:export-ydpi="107.20817" />
    <path
       style="fill:#2c79ba;fill-opacity:1;fill-rule:evenodd;stroke:none;stroke-width:1px;stroke-linecap:round;stroke-linejoin:round;stroke-opacity:1"
       d="m 667.24236,296.59099 c -46.15035,-8.81597 -91.98814,-9.69104 -137.59514,-4.70307 44.13615,-7.96059 89.32104,-10.14134 137.59514,4.70307 z"
       id="path4301-9"
       inkscape:connector-curvature="0"
       sodipodi:nodetypes="ccc"
       inkscape:export-filename="C:\Users\alec\Documents\GitHub\main\assets\images\default-image-merchant.png"
       inkscape:export-xdpi="107.20817"
       inkscape:export-ydpi="107.20817" />
    <path
       style="fill:none;fill-rule:evenodd;stroke:#2c79ba;stroke-width:1px;stroke-linecap:round;stroke-linejoin:miter;stroke-opacity:1"
       d="m 622.02408,196.00575 27.77797,0.26116"
       id="path4153-4-0"
       inkscape:connector-curvature="0"
       inkscape:export-filename="C:\Users\alec\Documents\GitHub\main\assets\images\default-image-merchant.png"
       inkscape:export-xdpi="107.20817"
       inkscape:export-ydpi="107.20817" />
    <path
       style="fill:none;fill-rule:evenodd;stroke:#2c79ba;stroke-width:0.16556409px;stroke-linecap:round;stroke-linejoin:round;stroke-opacity:1"
       d="m 593.92764,312.19645 17.76176,0.002"
       id="path4161-2-5"
       inkscape:connector-curvature="0"
       inkscape:export-filename="C:\Users\alec\Documents\GitHub\main\assets\images\default-image-merchant.png"
       inkscape:export-xdpi="107.20817"
       inkscape:export-ydpi="107.20817" />
    <path
       style="fill:none;fill-rule:evenodd;stroke:#2c79ba;stroke-width:0.16556409px;stroke-linecap:round;stroke-linejoin:round;stroke-opacity:1"
       d="m 593.42257,168.81149 17.76176,0.002"
       id="path4161-2-5-9"
       inkscape:connector-curvature="0"
       inkscape:export-filename="C:\Users\alec\Documents\GitHub\main\assets\images\default-image-merchant.png"
       inkscape:export-xdpi="107.20817"
       inkscape:export-ydpi="107.20817" />
  </g>
</svg>
