<?xml version="1.0" encoding="UTF-8" standalone="no"?>
<!-- Created with Inkscape (http://www.inkscape.org/) -->

<svg
   xmlns:dc="http://purl.org/dc/elements/1.1/"
   xmlns:cc="http://creativecommons.org/ns#"
   xmlns:rdf="http://www.w3.org/1999/02/22-rdf-syntax-ns#"
   xmlns:svg="http://www.w3.org/2000/svg"
   xmlns="http://www.w3.org/2000/svg"
   xmlns:xlink="http://www.w3.org/1999/xlink"
   xmlns:sodipodi="http://sodipodi.sourceforge.net/DTD/sodipodi-0.dtd"
   xmlns:inkscape="http://www.inkscape.org/namespaces/inkscape"
   width="210mm"
   height="297mm"
   viewBox="0 0 744.09448819 1052.3622047"
   id="svg2"
   version="1.1"
   inkscape:version="0.91 r13725"
   sodipodi:docname="logo designs-food-ordering-app.svg">
  <defs
     id="defs4" />
  <sodipodi:namedview
     id="base"
     pagecolor="#ffffff"
     bordercolor="#666666"
     borderopacity="1.0"
     inkscape:pageopacity="0.0"
     inkscape:pageshadow="2"
     inkscape:zoom="1.979899"
     inkscape:cx="550.33742"
     inkscape:cy="173.51649"
     inkscape:document-units="px"
     inkscape:current-layer="layer1"
     showgrid="false"
     inkscape:window-width="1920"
     inkscape:window-height="1018"
     inkscape:window-x="-8"
     inkscape:window-y="-8"
     inkscape:window-maximized="1" />
  <metadata
     id="metadata7">
    <rdf:RDF>
      <cc:Work
         rdf:about="">
        <dc:format>image/svg+xml</dc:format>
        <dc:type
           rdf:resource="http://purl.org/dc/dcmitype/StillImage" />
        <dc:title />
      </cc:Work>
    </rdf:RDF>
  </metadata>
  <g
     inkscape:label="Layer 1"
     inkscape:groupmode="layer"
     id="layer1">
    <path
       style="fill:#f67f21;fill-opacity:1;fill-rule:evenodd;stroke:#f67f21;stroke-width:1;stroke-linecap:round;stroke-linejoin:round;stroke-miterlimit:4;stroke-dasharray:none;stroke-opacity:1"
       d="m 286.1054,444.50291 23.23351,19.44544 c 9.55706,-21.30897 21.84733,-33.05174 38.13326,-30.80966 12.73261,15.8038 26.25043,25.2487 41.66879,24.24366 5.7453,10.29122 9.03877,8.32329 12.87945,9.09138 l -2.52538,-29.04189 c -3.77049,0.63128 -4.99636,2.37585 -15.40483,3.283 -5.90347,0.84595 -14.16058,-2.8773 -18.68782,-4.79823 4.89505,0.33925 7.41945,0.43165 18.56155,2.02031 2.69913,-1.73881 4.58652,-4.44838 0.37881,-8.08122 l -68.69037,-9.34391 c -2.19573,-0.20863 -10.1447,2.7493 -2.02031,8.33376 l 4.04061,0.50507 c -8.5419,4.37733 -12.97115,8.75465 -16.16244,13.13198 -9.61836,-3.31182 -11.41818,0.32617 -15.40483,2.02031 z"
       id="path4147"
       inkscape:connector-curvature="0"
       sodipodi:nodetypes="ccccccccccccccc" />
    <path
       style="fill:#f67f21;fill-opacity:1;fill-rule:evenodd;stroke:#f67f21;stroke-width:1px;stroke-linecap:round;stroke-linejoin:round;stroke-opacity:1"
       d="m 317.67267,410.91534 64.39723,16.66751 c 1.238,-15.48129 -0.41668,-30.05862 -20.45559,-38.89087 -0.57569,-6.8101 -5.86624,-4.44541 -7.32361,-1.51523 -21.08013,-0.53868 -29.44798,11.02958 -36.61803,23.73859 z"
       id="path4149"
       inkscape:connector-curvature="0"
       sodipodi:nodetypes="ccccc" />
    <path
       style="fill:none;fill-rule:evenodd;stroke:#2c79ba;stroke-width:1px;stroke-linecap:round;stroke-linejoin:miter;stroke-opacity:1"
       d="m 380.04959,394.24782 27.7792,0"
       id="path4153"
       inkscape:connector-curvature="0" />
    <path
       style="fill:none;fill-rule:evenodd;stroke:#2c79ba;stroke-width:1px;stroke-linecap:round;stroke-linejoin:miter;stroke-opacity:1"
       d="m 386.86812,400.30874 28.28427,-0.25254"
       id="path4155"
       inkscape:connector-curvature="0" />
    <path
       style="fill:none;fill-rule:evenodd;stroke:#2c79ba;stroke-width:1px;stroke-linecap:round;stroke-linejoin:miter;stroke-opacity:1"
       d="m 390.15112,427.58285 16.92005,-0.25253"
       id="path4157"
       inkscape:connector-curvature="0" />
    <path
       style="fill:none;fill-rule:evenodd;stroke:#2c79ba;stroke-width:1px;stroke-linecap:round;stroke-linejoin:miter;stroke-opacity:1"
       d="m 400.0001,433.39123 16.92006,-0.25254"
       id="path4159"
       inkscape:connector-curvature="0" />
    <path
       style="fill:none;fill-rule:evenodd;stroke:#2c79ba;stroke-width:1px;stroke-linecap:round;stroke-linejoin:round;stroke-opacity:1"
       d="m 407.32371,439.19961 16.92005,-0.25254"
       id="path4161"
       inkscape:connector-curvature="0" />
    <path
       style="fill:#ffffff;fill-opacity:1;fill-rule:evenodd;stroke:none;stroke-width:0.60000002;stroke-linecap:round;stroke-linejoin:round;stroke-miterlimit:4;stroke-dasharray:none;stroke-opacity:1"
       d="m 320.71564,409.07394 7.74357,2.03826 c 2.90229,-8.57981 8.07167,-17.14649 14.50916,-21.01015 -4.35072,-0.20446 -14.87454,5.04864 -22.25273,18.97189 z"
       id="path4235"
       inkscape:connector-curvature="0"
       sodipodi:nodetypes="cccc" />
    <text
       xml:space="preserve"
       style="font-style:normal;font-weight:normal;font-size:40px;line-height:125%;font-family:sans-serif;letter-spacing:0px;word-spacing:0px;fill:#000000;fill-opacity:1;stroke:none;stroke-width:1px;stroke-linecap:butt;stroke-linejoin:miter;stroke-opacity:1"
       x="333.57144"
       y="562.36218"
       id="text4154"
       sodipodi:linespacing="125%"><tspan
         sodipodi:role="line"
         id="tspan4156"
         x="333.57144"
         y="562.36218" /></text>
    <path
       style="fill:#2c4051;fill-opacity:1;fill-rule:evenodd;stroke:#2c404f;stroke-width:1px;stroke-linecap:round;stroke-linejoin:round;stroke-opacity:1"
       d="m 351.5368,791.58673 c -5.55584,4.90098 -11.11168,4.56431 -16.66752,0.37881 -29.12731,-7.82598 -27.71774,-26.10054 -25.75889,-34.09265 -24.36619,-0.712 -23.59644,-62.60531 8.71257,-36.36549 2.98837,-3.94349 5.97673,-6.291 8.9651,-8.5863 l 0.12627,-9.21764 c -24.2001,-18.12648 1.63816,-37.19276 17.04632,-23.35978 14.49344,-9.70507 38.07586,5.84731 16.66752,22.34963 l -0.25254,11.49048 c 3.09251,2.15764 5.57767,4.61895 7.32361,7.44988 24.23798,-27.62213 40.65532,28.10917 8.71256,35.73414 1.09491,4.24628 6.08112,26.33134 -24.875,34.21892 z"
       id="path4247"
       inkscape:connector-curvature="0"
       sodipodi:nodetypes="cccccccccccc" />
    <path
       style="fill:#dfdbc0;fill-opacity:1;fill-rule:evenodd;stroke:#2d3f51;stroke-width:1.39999998;stroke-linecap:round;stroke-linejoin:round;stroke-miterlimit:4;stroke-dasharray:none;stroke-opacity:1"
       d="m 327.4194,755.97885 c -16.91401,-14.32687 2.77683,-59.73101 15.27856,-31.31473 9.02495,-38.08484 32.94426,19.7713 15.5311,30.80966 30.39501,10.76137 4.27484,34.1361 -14.52095,32.70369 -41.56939,-1.39068 -30.53429,-32.94491 -16.28871,-32.19862 z"
       id="path4169"
       inkscape:connector-curvature="0"
       sodipodi:nodetypes="ccccc" />
    <ellipse
       style="opacity:1;fill:#2d4051;fill-opacity:1;stroke:none;stroke-width:1.39999998;stroke-linecap:round;stroke-linejoin:round;stroke-miterlimit:4;stroke-dasharray:none;stroke-dashoffset:0;stroke-opacity:1"
       id="path4173"
       cx="348.82199"
       cy="744.6778"
       rx="2.2097087"
       ry="4.987628" />
    <ellipse
       style="opacity:1;fill:#2d3f4f;fill-opacity:1;stroke:none;stroke-width:1.39999998;stroke-linecap:round;stroke-linejoin:round;stroke-miterlimit:4;stroke-dasharray:none;stroke-dashoffset:0;stroke-opacity:0.87843137"
       id="path4173-4"
       cx="336.76331"
       cy="744.74091"
       rx="2.2097087"
       ry="4.987628" />
    <ellipse
       style="opacity:1;fill:#2d4050;fill-opacity:1;stroke:none;stroke-width:1.39999998;stroke-linecap:round;stroke-linejoin:round;stroke-miterlimit:4;stroke-dasharray:none;stroke-dashoffset:0;stroke-opacity:0.87843137"
       id="path4173-4-3"
       cx="831.27631"
       cy="-390.01871"
       rx="1.4800159"
       ry="2.7842004"
       transform="matrix(-0.05408819,0.99853616,-0.98278346,0.18476114,0,0)" />
    <ellipse
       style="opacity:1;fill:#2d4051;fill-opacity:1;stroke:none;stroke-width:1.39999998;stroke-linecap:round;stroke-linejoin:round;stroke-miterlimit:4;stroke-dasharray:none;stroke-dashoffset:0;stroke-opacity:0.87843137"
       id="path4173-4-3-4"
       cx="533.66742"
       cy="-779.70245"
       rx="1.4800159"
       ry="2.7842004"
       transform="matrix(-0.65211834,0.75811719,-0.8913726,-0.45327131,0,0)" />
    <path
       style="fill:#2d404f;fill-opacity:1;fill-rule:evenodd;stroke:#2d404f;stroke-width:0.98063809px;stroke-linecap:round;stroke-linejoin:round;stroke-opacity:1"
       d="m 335.99602,780.84417 c 2.30313,3.81575 9.82077,5.07614 13.53015,0.1224 -5.48608,2.17142 -9.70336,1.64897 -13.53015,-0.1224 z"
       id="path4222"
       inkscape:connector-curvature="0"
       sodipodi:nodetypes="ccc" />
    <path
       style="fill:#2d4051;fill-opacity:1;fill-rule:evenodd;stroke:#2e4051;stroke-width:0.60000002;stroke-linecap:round;stroke-linejoin:round;stroke-miterlimit:4;stroke-dasharray:none;stroke-opacity:1"
       d="m 342.82423,736.5844 c 5.95901,0.59861 4.44845,-9.80355 6.82619,-11.22897 3.26258,-2.85796 6.29764,1.84706 6.87718,2.45141 -2.2643,-0.45215 -4.1872,-1.51443 -4.79057,-0.32782 -1.54779,5.34773 -4.34637,14.28822 -8.9128,9.10538 z"
       id="path4224"
       inkscape:connector-curvature="0"
       sodipodi:nodetypes="ccccc" />
    <path
       style="fill:#2d4051;fill-opacity:1;fill-rule:evenodd;stroke:none;stroke-width:0.40000001;stroke-linecap:round;stroke-linejoin:round;stroke-miterlimit:4;stroke-dasharray:none;stroke-opacity:1"
       d="m 342.80168,764.69046 c -6.44222,-5.5243 -9.74314,5.61841 -11.69643,6.33928 -2.84283,0.86219 -3.86086,0.21317 -4.50893,-2.32142 -1.369,-0.1012 -0.91512,0.4802 -1.33928,1.29464 0.36341,9.46451 16.08145,4.67974 17.63393,-1.38393 z"
       id="path4230"
       inkscape:connector-curvature="0"
       sodipodi:nodetypes="cccccc" />
    <path
       style="fill:#2d404f;fill-opacity:1;fill-rule:evenodd;stroke:none;stroke-width:0.39005804;stroke-linecap:round;stroke-linejoin:round;stroke-miterlimit:4;stroke-dasharray:none;stroke-opacity:1"
       d="m 343.21458,764.71866 c 6.12097,-5.5288 9.25729,5.62299 11.11317,6.34445 2.70107,0.86289 3.66834,0.21334 4.28409,-2.32332 1.30073,-0.10128 0.86949,0.48059 1.27249,1.2957 -0.34528,9.47222 -15.27952,4.68355 -16.75458,-1.38506 z"
       id="path4230-6"
       inkscape:connector-curvature="0"
       sodipodi:nodetypes="cccccc" />
    <path
       style="fill:#dfdbc0;fill-opacity:1;fill-rule:evenodd;stroke:#2c4051;stroke-width:1px;stroke-linecap:round;stroke-linejoin:round;stroke-opacity:1"
       d="m 334.74301,702.81958 c -31.92138,-17.20519 1.12573,-29.22495 5.68211,-18.94036 l -4.29315,5.55583 c 32.16843,-24.2695 42.44159,15.02034 2.77792,12.2481 3.50493,1.48495 2.83191,3.92485 17.29886,2.90419 l -0.12627,6.56599 c -2.52854,-5.98712 -8.97231,-3.70244 -14.01586,0.63135 -4.51855,-2.65527 -8.74731,-5.73572 -10.35407,-2.14657 l -0.3788,-6.31346 z"
       id="path4249"
       inkscape:connector-curvature="0"
       sodipodi:nodetypes="cccccccccc" />
    <path
       style="fill:#dfdbc0;fill-opacity:1;fill-rule:evenodd;stroke:#2d4051;stroke-width:1px;stroke-linecap:round;stroke-linejoin:round;stroke-opacity:1"
       d="m 306.58501,737.92238 c 11.00403,0.5845 5.11195,15.23559 0.12627,14.77348 -13.73272,-3.43849 -16.26025,-28.98916 -4.41942,-30.80966 3.26464,0.17769 10.64853,-0.47027 10.85914,17.1726 -2.27798,-2.54875 -4.27976,-4.26524 -6.56599,-1.13642 z"
       id="path4251"
       inkscape:connector-curvature="0"
       sodipodi:nodetypes="ccccc" />
    <path
       style="fill:#dfdbc0;fill-opacity:1;fill-rule:evenodd;stroke:#2d4050;stroke-width:0.98829812px;stroke-linecap:round;stroke-linejoin:round;stroke-opacity:1"
       d="m 379.51415,737.53822 c -10.74392,0.58472 -4.99112,15.24137 -0.12329,14.77909 13.40812,-3.4398 15.8759,-29.00017 4.31496,-30.82136 -3.18747,0.17775 -10.39682,-0.47046 -10.60245,17.17912 2.22413,-2.54972 4.17859,-4.26686 6.41078,-1.13685 z"
       id="path4251-4"
       inkscape:connector-curvature="0"
       sodipodi:nodetypes="ccccc" />
    <text
       xml:space="preserve"
       style="font-style:normal;font-weight:normal;font-size:40px;line-height:125%;font-family:sans-serif;letter-spacing:0px;word-spacing:0px;fill:#2c4051;fill-opacity:1;stroke:none;stroke-width:1px;stroke-linecap:butt;stroke-linejoin:miter;stroke-opacity:1"
       x="230.21254"
       y="825.19458"
       id="text4268"
       sodipodi:linespacing="125%"><tspan
         sodipodi:role="line"
         id="tspan4270"
         x="230.21254"
         y="825.19458"
         style="font-style:italic;font-variant:normal;font-weight:normal;font-stretch:normal;font-size:35px;font-family:GalanoGrotesqueAlt-BoldItalic;-inkscape-font-specification:'GalanoGrotesqueAlt-BoldItalic Italic'">Entrangando!</tspan></text>
    <text
       xml:space="preserve"
       style="font-style:normal;font-weight:normal;font-size:40px;line-height:125%;font-family:sans-serif;letter-spacing:0px;word-spacing:0px;fill:#f67f21;fill-opacity:1;stroke:none;stroke-width:1px;stroke-linecap:butt;stroke-linejoin:miter;stroke-opacity:1"
       id="text4268-5"
       sodipodi:linespacing="125%"
       transform="translate(0,-8)"><textPath
         xlink:href="#path4363"
         id="textPath4365"><tspan
   style="font-style:italic;font-variant:normal;font-weight:normal;font-stretch:normal;font-size:35px;font-family:GalanoGrotesqueAlt-BoldItalic;-inkscape-font-specification:'GalanoGrotesqueAlt-BoldItalic Italic';fill:#f67f21;fill-opacity:1"
   id="tspan4270-2">                                                   Entrangando</tspan></textPath></text>
    <path
       style="fill:#2c79ba;fill-opacity:1;fill-rule:evenodd;stroke:none;stroke-width:1px;stroke-linecap:round;stroke-linejoin:round;stroke-opacity:1"
       d="m 419.93031,478.46929 c -46.23119,-8.3817 -92.07518,-8.82579 -137.63328,-3.40927 44.05937,-8.37518 89.22176,-10.98064 137.63328,3.40927 z"
       id="path4301"
       inkscape:connector-curvature="0"
       sodipodi:nodetypes="ccc" />
    <path
       style="fill:none;fill-rule:evenodd;stroke:#2c79ba;stroke-width:1px;stroke-linecap:round;stroke-linejoin:miter;stroke-opacity:1"
       d="m 373.8624,388.31318 27.7792,0"
       id="path4153-4"
       inkscape:connector-curvature="0" />
    <text
       xml:space="preserve"
       style="font-style:normal;font-weight:normal;font-size:40px;line-height:125%;font-family:sans-serif;letter-spacing:0px;word-spacing:0px;fill:#000000;fill-opacity:1;stroke:none;stroke-width:1px;stroke-linecap:butt;stroke-linejoin:miter;stroke-opacity:1"
       x="477.85715"
       y="504.14792"
       id="text4335"
       sodipodi:linespacing="125%"><tspan
         sodipodi:role="line"
         id="tspan4337"
         x="477.85715"
         y="504.14792" /></text>
    <text
       xml:space="preserve"
       style="font-style:normal;font-weight:normal;font-size:40px;line-height:125%;font-family:sans-serif;letter-spacing:0px;word-spacing:0px;fill:#2c79ba;fill-opacity:1;stroke:none;stroke-width:1px;stroke-linecap:butt;stroke-linejoin:miter;stroke-opacity:1"
       x="576.60559"
       y="377.70114"
       id="text4268-5-7"
       sodipodi:linespacing="125%"
       transform="matrix(0.96433953,0.26466822,-0.26466822,0.96433953,0,0)"><tspan
         sodipodi:role="line"
         id="tspan4270-2-4"
         x="576.60559"
         y="377.70114"
         style="font-style:italic;font-variant:normal;font-weight:normal;font-stretch:normal;font-size:35px;font-family:GalanoGrotesqueAlt-BoldItalic;-inkscape-font-specification:'GalanoGrotesqueAlt-BoldItalic Italic';fill:#2c79ba;fill-opacity:1">!</tspan></text>
    <ellipse
       style="opacity:1;fill:none;fill-opacity:1;stroke:none;stroke-width:0.92115408;stroke-linecap:round;stroke-linejoin:round;stroke-miterlimit:4;stroke-dasharray:none;stroke-dashoffset:0;stroke-opacity:1"
       id="path4363"
       cx="336.63333"
       cy="556.66602"
       rx="155.35039"
       ry="49.915703" />
    <text
       xml:space="preserve"
       style="font-style:normal;font-weight:normal;font-size:40px;line-height:125%;font-family:sans-serif;letter-spacing:0px;word-spacing:0px;fill:#000000;fill-opacity:1;stroke:none;stroke-width:1px;stroke-linecap:butt;stroke-linejoin:miter;stroke-opacity:1"
       x="571.74634"
       y="1042.7659"
       id="text4368"
       sodipodi:linespacing="125%"><tspan
         sodipodi:role="line"
         id="tspan4370"
         x="571.74634"
         y="1042.7659"
         style="font-size:12.5px">Copyright 2016 Alec Hahn</tspan></text>
  </g>
</svg>
